<svg version="1.1" id="Capa_1" xmlns="http://www.w3.org/2000/svg" xmlns:xlink="http://www.w3.org/1999/xlink" x="0px" y="0px"
	 width="1024px" height="768px" viewBox="0 0 1024 768" enable-background="new 0 0 1024 768" xml:space="preserve">
<g>
	<path fill="#FFFFFF" d="M377.19,226.331c0,74.605,60.479,135.088,135.088,135.088c74.604,0,135.092-60.483,135.092-135.088
		c0-74.605-60.487-135.088-135.092-135.088C437.669,91.242,377.19,151.726,377.19,226.331z"/>
	<path opacity="0.5" fill="#FFFFFF" d="M115.371,309.886c0,51.533,41.776,93.31,93.309,93.31c51.536,0,93.309-41.776,93.309-93.31
		c0-51.529-41.773-93.309-93.309-93.309C157.146,216.577,115.371,258.356,115.371,309.886z"/>
	<path opacity="0.5" fill="#FFFFFF" d="M725.357,309.886c0,51.533,41.772,93.31,93.31,93.31c51.536,0,93.308-41.776,93.308-93.31
		c0-51.529-41.771-93.309-93.308-93.309C767.13,216.577,725.357,258.356,725.357,309.886z"/>
	<path opacity="0.5" fill="#FFFFFF" d="M34.597,568.521v77.008h403.797v-75.126c0,0-14.743-26.927-48.827-43.199
		c-60.77-29.017-179.667-58.863-309.895,1.882C62.848,536.926,43.985,555.37,34.597,568.521z"/>
	<path opacity="0.5" fill="#FFFFFF" d="M586.098,568.521v77.008h403.796v-75.126c0,0-14.742-26.927-48.834-43.199
		c-60.762-29.017-179.667-58.863-309.895,1.882C614.341,536.926,595.488,555.37,586.098,568.521z"/>
	<path fill="#FFFFFF" d="M196.143,531.325v114.203h598.844V534.111c0,0-21.858-39.924-72.416-64.062
		c-90.109-43.027-266.45-87.3-459.577,2.785C238.04,484.472,210.072,511.825,196.143,531.325z"/>
</g>
</svg>
