<svg version="1.1" id="Capa_1" xmlns="http://www.w3.org/2000/svg" xmlns:xlink="http://www.w3.org/1999/xlink" x="0px" y="0px"
	 width="674px" height="662px" viewBox="176.5 50.5 674 662" enable-background="new 176.5 50.5 674 662" xml:space="preserve">
<g>
	<g>
		<path fill="#FFFFFF" d="M721.319,386.368c-1.565,0-2.736,1.137-2.736,2.755c-0.017,1.604,1.171,2.741,2.721,2.745
			c1.549,0,2.752-1.133,2.757-2.731C724.061,387.518,722.857,386.368,721.319,386.368z M723.037,390.958l-0.914-0.002l-0.83-1.58
			h-0.577v1.58h-0.852l0.016-3.749l1.822,0.013c0.861,0,1.45,0.159,1.45,1.146c0,0.696-0.358,0.972-1.009,1.01L723.037,390.958z"/>
		<path fill="#FFFFFF" d="M678.354,391.896c-3.688-0.008-6.671,2.137-6.69,8.64c0,5.701,2.982,8.666,6.653,8.675
			c3.682,0,6.392-4.167,6.392-8.948C684.719,395.475,682.035,391.898,678.354,391.896z"/>
		<path fill="#FFFFFF" d="M721.525,387.87h-0.81v0.945h0.996c0.432,0,0.652-0.094,0.652-0.562
			C722.364,387.87,721.881,387.87,721.525,387.87z"/>
		<path fill="#FFFFFF" d="M768.249,168.528c-0.035-29.786-17.535-47.668-47.233-47.7c-138.384-0.16-276.77-0.163-415.146,0
			c-29.653,0.032-47.089,17.957-47.125,47.803c-0.121,81.431-0.121,162.864,0,244.288c0.036,31.139,17.835,48.577,49.362,48.597
			c68.242,0.072,136.496,0.028,204.739,0.028c69.187,0,138.386,0.077,207.575-0.042c29.58-0.045,47.762-17.915,47.813-47.277
			C768.396,332.321,768.381,250.423,768.249,168.528z M501.701,415.377c-9.171,9.17-24.043,9.17-33.234,0
			c-9.159-9.169-9.159-24.049,0-33.225c5.105-5.087,11.964-7.354,18.618-6.784h-0.152c-5.767,0-11.176,2.237-15.252,6.31
			c-4.075,4.068-6.302,9.483-6.302,15.234c0,5.759,2.227,11.164,6.302,15.248c4.076,4.061,9.485,6.303,15.252,6.303
			c5.746,0,11.166-2.242,15.23-6.303c4.317-4.333,6.429-10.04,6.298-15.724C509.139,403.206,506.88,410.193,501.701,415.377z
			 M488.435,388.125l7.174,0.008l-7.793,9.291l8.171,11.963h-7.1l-7.847-11.813l-0.021,11.854l-5.746-0.013v-18.817
			c0-2.65,2.474-2.489,2.474-2.489l3.32,0.005l-0.027,9.434L488.435,388.125z M498.015,411.693c7.132-7.14,7.132-18.714,0-25.851
			c-7.143-7.131-18.707-7.131-25.845,0c-3.608,3.604-5.373,8.333-5.341,13.041c-0.063-0.652-0.101-1.307-0.101-1.972
			c0-5.386,2.106-10.471,5.93-14.285c3.812-3.814,8.875-5.91,14.274-5.91s10.457,2.096,14.274,5.917
			c7.868,7.871,7.868,20.687,0,28.562c-3.817,3.824-8.875,5.917-14.274,5.917c-0.609,0-1.218-0.026-1.807-0.085
			C489.789,417.026,494.453,415.243,498.015,411.693z M542.36,414.325l-10.335-15.914v15.939l-7.81-0.008v-25.512
			c0-3.36,3.293-3.312,3.293-3.312l4.517,0.012v12.843l10.095-12.83l9.746,0.015l-10.614,12.652l10.846,16.132L542.36,414.325z
			 M573.39,393.078c-3.919-0.007-9.517-0.539-9.522,8.011l-0.025,13.246h-7.825v-25.518c0-3.36,3.297-3.311,3.297-3.311h4.574v5.082
			c2.37-5.104,5.924-5.623,9.502-5.614V393.078z M585.121,414.343h-7.825v-28.816h7.825V414.343z M585.121,381.92h-7.81v-3.889
			c0-3.365,3.304-3.322,3.304-3.322l4.506,0.013V381.92z M602.368,415.072c-14.274-0.024-13.275-9.97-13.275-10.122h7.815
			c0,0,0.046,4.217,5.901,4.237c4.728,0,4.696-2.4,4.696-2.4c0.004-5.626-17.521-1.226-17.511-12.386
			c0-0.78,0.026-9.436,12.489-9.42c12.453,0.021,12.026,9.456,12.026,9.456l-7.651-0.01c0,0-0.017-3.803-4.69-3.813
			c-4.651-0.005-4.452,2.392-4.452,2.392c-0.012,4.431,17.529,1.807,17.51,12.34C615.205,415.876,602.368,415.072,602.368,415.072z
			 M660.508,414.343h-7.911v-17.952c-0.134-1.845-0.908-4.755-4.395-4.772c-5.199,0-4.795,5.74-4.795,5.74v16.984h-8.04v-17.998
			c-0.147-1.852-0.899-4.743-4.313-4.743c-4.138-0.009-4.736,3.653-4.794,5.149l-0.037,0.625v16.967h-7.819v-25.37
			c0-3.502,3.519-3.521,3.519-3.521l4.359,0.005l-0.017,4.117c0,0,2.091-4.755,8.551-4.75c6.438,0.016,7.608,5.094,7.608,5.094
			s2.18-5.075,9.544-5.062c7.27,0.01,8.54,6.093,8.54,10.718V414.343z M692.555,391.182v23.662h-7.821l0.017-3.747
			c-2.222,2.949-5.347,4.779-8.823,4.773c-6.754,0.026-12.29-5.89-12.274-15.459c0.026-9.723,5.446-15.492,12.201-15.5
			c3.759,0,6.806,1.704,8.927,4.472v-0.504c0-3.372,3.3-3.32,3.3-3.32h4.475v0.035l0.041-0.035L692.555,391.182z M695.758,202.718
			c-8.943,23.211-29.169,35.463-52.771,31.945c-21.145-3.146-24.464,2.835-30.482,13.691c-3.896,7.027-8.749,15.772-19.254,23.138
			c-11.8,8.285-24.032,5.575-35.859,2.957c-14.148-3.14-26.369-5.842-39.683,7.726c-2.826,2.88-4.632,7.497-6.556,12.379
			c-3.056,7.798-6.521,16.64-15.46,21.115c-13.288,6.644-25.462,1.801-34.343-1.736c-3.666-1.46-7.132-2.836-9.784-3.106
			c-16.102-0.883-20.162,2.823-29.152,17.807c-9.816,16.372-27.82,21.002-40.524,17.079c-4.175-1.285-7.631-2.914-10.692-4.352
			c-6.948-3.25-11.161-5.233-19.585-2.279c-14.174,6.282-16.947,16.895-16.947,33.087c0,3.116-2.537,5.651-5.651,5.651
			c-3.125,0-5.656-2.535-5.656-5.651c0-17.174,2.889-34.325,23.907-43.522l0.356-0.148c12.925-4.61,20.776-0.932,28.381,2.632
			c2.857,1.344,5.809,2.728,9.213,3.78c8.293,2.561,20.75-0.818,27.514-12.092c10.037-16.743,17.243-24.49,39.704-23.252
			c4.491,0.446,8.671,2.106,13.094,3.864c8.408,3.344,16.359,6.503,25.104,2.127c5.063-2.528,7.353-8.368,10.01-15.132
			c2.243-5.723,4.57-11.644,9.008-16.17c17.692-18.032,35.713-14.047,50.192-10.842c10.724,2.373,19.19,4.256,26.92-1.161
			c8.372-5.885,12.18-12.747,15.861-19.377c6.46-11.644,13.14-23.67,42.015-19.388c18.129,2.681,33.119-6.328,40.282-24.135
			l-14.211,5.231c-2.937,1.072-6.177-0.429-7.254-3.351c-1.082-2.93,0.426-6.179,3.353-7.26l35.36-13.009l8.938,34.563
			c0.787,3.022-1.035,6.11-4.055,6.889c-0.468,0.122-0.956,0.18-1.43,0.18c-2.499,0-4.799-1.689-5.456-4.233l-4.217-16.317
			C695.895,202.271,695.842,202.497,695.758,202.718z M713.866,393.078c-3.907-0.007-9.506-0.539-9.521,8.011l-0.016,13.246h-7.831
			v-25.518c0-3.36,3.303-3.311,3.303-3.311h4.576v5.082c2.379-5.104,5.914-5.623,9.501-5.614L713.866,393.078z M721.304,392.729
			c-1.996,0-3.594-1.617-3.581-3.605c0-2.006,1.605-3.604,3.597-3.597c1.989,0.005,3.598,1.608,3.598,3.613
			C724.912,391.129,723.309,392.73,721.304,392.729z"/>
	</g>
	<path fill="#FFFFFF" d="M614.9,541.627c-68.001,0-133.871,0-202.371,0c3.645-9.976,6.917-19.145,10.356-28.252
		c0.93-2.438,1.828-4.883,2.736-7.327h-24.148c-20.955,54.726-41.92,109.461-62.906,164.181c-3.015,7.846-6.901,16.672,3.729,20.965
		c10.608,4.28,14.17-4.443,17.216-12.47c12.888-33.773,26.06-67.448,38.554-101.375c3.272-8.899,7.526-12.731,17.651-12.653
		c65.187,0.495,130.353,0.49,195.518,0c10.12-0.078,14.405,3.693,17.692,12.615c12.642,34.384,25.95,68.522,39.018,102.748
		c2.946,7.736,7.026,15.085,16.736,11.208c9.775-3.907,7.28-12.16,4.376-19.699c-11.743-30.609-23.543-61.186-35.271-91.799
		c-9.328-24.353-18.645-48.721-28.214-73.721h-24.242C605.782,517.724,610.269,529.527,614.9,541.627z"/>
	<g>
		<path fill="#FFFFFF" d="M508.931,72.665c90.587,0,181.192,0.01,271.778,0.028c28.828,0.005,35.057,7.316,35.071,41.177
			c0.095,117.718,0.095,237.085,0,354.788c-0.014,16.127-1.078,27.312-6.33,33.232c-4.519,5.094-12.398,6.991-29.075,7
			c-35.588,0.027-74.745,0.04-123.23,0.04c-24.043,0-48.089-0.003-72.135-0.006c-24.048-0.003-48.096-0.006-72.144-0.006
			l-16.217-0.001c-23.28,0-46.561,0.004-69.842,0.008c-23.28,0.004-46.56,0.008-69.837,0.008c-43.707,0-79.174-0.015-111.617-0.046
			c-28.686-0.036-34.109-6.317-34.129-39.53c-0.101-126.529-0.101-243.28,0-356.923c0.016-16.955,2.079-26.537,6.897-32.037
			c4.792-5.47,12.777-7.702,27.562-7.704C333.437,72.674,421.174,72.665,508.931,72.665 M508.931,70.665
			c-87.757,0-175.494,0.009-263.248,0.028c-28.928,0.005-36.428,8.445-36.459,41.739c-0.105,118.979-0.095,237.955,0,356.927
			c0.021,34.352,6.292,41.49,36.127,41.528c37.206,0.036,74.415,0.046,111.62,0.046c46.555,0,93.121-0.016,139.679-0.016
			c5.41,0,10.807,0.001,16.217,0.001c48.094,0,96.189,0.012,144.278,0.012c41.08,0,82.152-0.009,123.231-0.04
			c31.681-0.018,37.373-6.367,37.404-42.23c0.095-118.257,0.095-236.519,0-354.791c-0.016-35.017-7.1-43.171-37.071-43.176
			C690.123,70.675,599.518,70.665,508.931,70.665L508.931,70.665z"/>
	</g>
</g>
</svg>
