
<svg viewBox="0 0 110 80" enable-background="new 0 0 110 80" xml:space="preserve">

	<path fill="none" stroke="#FFFFFF" stroke-width="2" stroke-miterlimit="10" d="M5.233,14.017V75c0,0,21.988-9.334,49.768,0
		c0,0,20.193-9.335,49.767,0V14.017c0,0-24.189-11.08-49.767,0C55,14.017,33.692,1.885,5.233,14.017z"/>

		<path fill="none" d="M77.967,58.299c0,0-0.031-0.357,0.662-0.355c0.693,0,0.695,0.566,0.695,0.566l1.139,0.003
			c0,0,0.064-1.404-1.787-1.408c-1.855-0.003-1.859,1.286-1.859,1.401c-0.002,1.661,2.605,1.005,2.604,1.844
			c0,0,0.008,0.357-0.697,0.357c-0.871-0.003-0.877-0.632-0.877-0.632h-1.162c0,0.023-0.15,1.503,1.973,1.507
			c0,0,1.91,0.119,1.912-1.447C80.574,58.566,77.963,58.959,77.967,58.299z"/>
		<path fill="none" d="M86.037,57.086c-1.094-0.002-1.42,0.754-1.42,0.754s-0.174-0.756-1.133-0.759
			c-0.959-0.001-1.271,0.706-1.271,0.706l0.002-0.611l-0.648-0.001c0,0-0.525,0.003-0.525,0.524v3.773h1.166v-2.523l0.004-0.093
			c0.012-0.224,0.098-0.769,0.715-0.767c0.51,0,0.619,0.43,0.643,0.705v2.678h1.195v-2.526c0,0-0.061-0.854,0.713-0.854
			c0.52,0.001,0.633,0.435,0.654,0.71v2.67h1.178V58.68C87.309,57.992,87.119,57.088,86.037,57.086z"/>
		<path fill="none" d="M63.748,61.148c-0.607,0.604-1.412,0.938-2.27,0.938c-0.854,0-1.662-0.334-2.268-0.938
			c-0.605-0.606-0.939-1.412-0.939-2.27c0-0.854,0.334-1.66,0.939-2.266s1.41-0.938,2.266-0.939c-0.982-0.076-1.99,0.259-2.742,1.01
			c-1.365,1.365-1.365,3.579,0,4.943c1.367,1.365,3.58,1.365,4.943,0c0.771-0.771,1.107-1.811,1.006-2.817
			C64.703,59.654,64.389,60.505,63.748,61.148z"/>
		<path fill="none" d="M72.932,57.938v-0.755H72.25c0,0-0.49-0.008-0.49,0.492v3.797h1.166l0.002-1.972
			c0.002-1.272,0.834-1.192,1.416-1.191l0.002-1.206C73.813,57.102,73.285,57.179,72.932,57.938z"/>
		<path fill="none" d="M92.078,57.191l-0.668-0.002c0,0-0.49-0.006-0.49,0.494v0.076c-0.314-0.411-0.77-0.664-1.328-0.666
			c-1.004,0.002-1.811,0.859-1.814,2.309c-0.004,1.422,0.82,2.302,1.824,2.299c0.518,0,0.982-0.273,1.313-0.711l-0.002,0.557h1.166
			v-3.52l0.004-0.836l-0.004,0.004V57.191z M89.959,60.709c-0.547,0-0.99-0.441-0.99-1.289c0.002-0.969,0.447-1.287,0.994-1.287
			c0.549,0.002,0.947,0.533,0.945,1.245C90.908,60.09,90.506,60.711,89.959,60.709z"/>
		<path fill="none" d="M74.93,56.07v0.578h1.162v-1.07l-0.672-0.002C75.42,55.576,74.93,55.57,74.93,56.07z"/>
		<rect x="74.928" y="57.186" fill="none" width="1.164" height="4.288"/>
		<path fill="none" d="M71.145,57.191l-1.451-0.003l-1.504,1.908v-1.911h-0.67c0,0-0.49-0.008-0.49,0.492v3.795l1.16,0.002v-2.371
			l1.537,2.367l1.451,0.002l-1.613-2.4L71.145,57.191z"/>
		<path fill="none" d="M60.113,57.57c0,0-0.367-0.025-0.367,0.369v2.801l0.855,0.002l0.002-1.764l1.168,1.758h1.057l-1.217-1.781
			l1.16-1.381l-1.064-0.002l-1.104,1.401l0.004-1.403H60.113z"/>
		<path fill="none" d="M59.355,56.754c-0.568,0.568-0.881,1.324-0.881,2.125c0,0.1,0.004,0.197,0.014,0.295
			c-0.004-0.701,0.26-1.405,0.793-1.94c1.064-1.062,2.785-1.062,3.848,0c1.061,1.062,1.061,2.784,0,3.845
			c-0.529,0.529-1.223,0.794-1.916,0.795c0.088,0.008,0.178,0.013,0.268,0.013c0.803,0,1.557-0.313,2.125-0.881
			c1.17-1.171,1.17-3.077,0-4.25c-0.568-0.567-1.322-0.88-2.125-0.88S59.924,56.188,59.355,56.754z"/>
		<path fill="none" d="M96.357,57.186c-0.299,0-0.535,0.236-0.535,0.537c-0.002,0.295,0.234,0.533,0.533,0.534
			c0.299,0,0.535-0.238,0.537-0.534C96.893,57.425,96.654,57.186,96.357,57.186z M96.355,58.13
			c-0.232-0.001-0.408-0.171-0.406-0.407c0-0.241,0.174-0.411,0.408-0.411c0.229,0,0.406,0.171,0.406,0.411
			C96.764,57.961,96.584,58.13,96.355,58.13z"/>
		<path fill="none" d="M93.836,57.938v-0.755h-0.68c0,0-0.49-0.008-0.49,0.492v3.797h1.162l0.004-1.972
			c0.002-1.272,0.836-1.192,1.416-1.191l0.002-1.206C94.717,57.102,94.189,57.179,93.836,57.938z"/>
		<path fill="none" d="M61.479,55.674h-0.002c0.008,0,0.018,0,0.025,0.001L61.479,55.674z"/>
		<path fill="none" d="M96.629,57.608c0-0.147-0.088-0.171-0.215-0.171l-0.271-0.002v0.558h0.125v-0.234h0.086l0.123,0.234
			l0.135,0.001l-0.133-0.235C96.576,57.752,96.629,57.711,96.629,57.608z M96.416,57.676h-0.148v-0.142l0.119,0.001
			c0.055,0,0.125,0,0.125,0.057C96.512,57.662,96.479,57.676,96.416,57.676z"/>
		<path fill="none" d="M49.452,49.963c-0.706,0.719-1.089,1.695-1.46,2.642c-0.468,1.19-0.908,2.314-1.92,2.82
			c-1.672,0.837-3.189,0.233-4.656-0.351c-0.731-0.291-1.424-0.566-2.12-0.636c-3.654-0.202-4.773,1.002-6.452,3.798
			c-1.271,2.119-3.63,2.748-5.207,2.262c-0.296-0.09-0.605,0.074-0.697,0.367c-0.09,0.295,0.075,0.606,0.368,0.697
			c0.445,0.137,0.932,0.208,1.437,0.208c1.795,0,3.82-0.904,5.056-2.961c1.531-2.552,2.34-3.432,5.409-3.261
			c0.517,0.053,1.138,0.299,1.796,0.561c1.536,0.611,3.447,1.371,5.565,0.313c1.395-0.697,1.96-2.139,2.459-3.41
			c0.346-0.881,0.672-1.713,1.218-2.27c1.603-1.633,3.147-1.975,4.71-1.867c0.824,0.057,1.653,0.238,2.497,0.426
			c1.947,0.432,3.959,0.876,5.838-0.442c1.729-1.214,2.539-2.671,3.188-3.841c1.051-1.895,1.744-3.146,5.666-2.563
			c3.23,0.479,6.072-0.854,7.771-3.535l1.053,0.633c0.131,0.079,0.26,0.118,0.385,0.118c0.266,0,0.533-0.197,0.533-0.637V36.1
			c0-0.422-0.283-0.728-0.676-0.728c-0.09,0-0.182,0.016-0.273,0.046l-3.295,1.118c-0.352,0.119-0.424,0.324-0.436,0.437
			c-0.012,0.112,0.016,0.328,0.332,0.519l1.426,0.856c-1.465,2.311-3.855,3.42-6.656,3.005c-4.684-0.698-5.666,1.074-6.805,3.125
			c-0.625,1.126-1.334,2.403-2.854,3.47c-1.475,1.035-3.088,0.678-4.955,0.266c-0.877-0.194-1.794-0.395-2.739-0.451
			C53.191,47.653,51.329,48.049,49.452,49.963z"/>
		<path fill="#FFFFFF" d="M50.247,50.742c-0.546,0.557-0.872,1.389-1.218,2.27c-0.499,1.271-1.064,2.713-2.459,3.41
			c-2.118,1.059-4.029,0.299-5.565-0.313c-0.658-0.262-1.279-0.508-1.796-0.561c-3.069-0.171-3.878,0.709-5.409,3.261
			c-1.235,2.057-3.261,2.961-5.056,2.961c-0.505,0-0.991-0.071-1.437-0.208c-0.293-0.091-0.458-0.402-0.368-0.697
			c0.092-0.293,0.401-0.457,0.697-0.367c1.577,0.486,3.936-0.143,5.207-2.262c1.679-2.796,2.798-4,6.452-3.798
			c0.696,0.069,1.389,0.345,2.12,0.636c1.467,0.584,2.984,1.188,4.656,0.351c1.012-0.506,1.452-1.63,1.92-2.82
			c0.371-0.946,0.754-1.923,1.46-2.642c1.877-1.914,3.739-2.31,5.505-2.201V8.625c-22.007-8.115-45.404,0-45.404,0v60.482
			c25.812-7.057,45.404,1.133,45.404,1.133V48.875C53.394,48.768,51.849,49.109,50.247,50.742z M18.956,20.412
			c0.105-0.034,10.762-3.326,26.156,0c0.201,0.043,0.315,0.417,0.272,0.617c-0.043,0.201-0.241,0.328-0.441,0.285
			c-15.201-3.284-25.579-0.042-25.683-0.009c-0.038,0.012-0.076,0.018-0.113,0.018c-0.157,0-0.304-0.1-0.354-0.258
			C18.73,20.869,18.761,20.474,18.956,20.412z M45.381,31.564c-0.043,0.169-0.193,0.281-0.36,0.281c-0.029,0-0.06-0.003-0.091-0.012
			c-13.48-3.401-25.561-0.037-25.682-0.002c-0.198,0.054-0.402-0.058-0.459-0.255c-0.057-0.198,0.031-0.545,0.229-0.602
			c0.121-0.035,12.382-3.483,26.063-0.031C45.279,30.994,45.431,31.365,45.381,31.564z M19.018,25.755
			c0.088-0.029,8.845-2.848,20.563-0.875c0.202,0.034,0.394,0.386,0.359,0.588s-0.224,0.337-0.428,0.305
			c-11.537-1.944-20.164,0.825-20.249,0.853c-0.038,0.013-0.078,0.018-0.116,0.018c-0.156,0-0.302-0.099-0.353-0.255
			C18.73,26.194,18.824,25.82,19.018,25.755z M18.956,36.037c0.078-0.026,7.966-2.599,20.656-0.875
			c0.204,0.027,0.357,0.368,0.33,0.57c-0.027,0.203-0.213,0.344-0.419,0.319c-12.521-1.703-20.181,0.825-20.257,0.85
			c-0.039,0.014-0.08,0.02-0.119,0.02c-0.154,0-0.299-0.098-0.352-0.252C18.73,36.474,18.76,36.102,18.956,36.037z M18.787,41.902
			c-0.049-0.199,0.095-0.566,0.294-0.615c0.14-0.035,13.973-3.391,25.938,0c0.197,0.056,0.416,0.43,0.359,0.627
			c-0.045,0.164-0.194,0.271-0.356,0.271c-0.033,0-0.067-0.005-0.102-0.015c-11.778-3.336-25.547-0.029-25.684,0.004
			C19.038,42.223,18.834,42.101,18.787,41.902z"/>
		<path fill="#FFFFFF" d="M89.963,58.133c-0.547,0-0.992,0.318-0.994,1.287c0,0.848,0.443,1.289,0.99,1.289
			c0.547,0.002,0.949-0.619,0.949-1.331C90.91,58.666,90.512,58.135,89.963,58.133z"/>
		<path fill="#FFFFFF" d="M96.387,57.535l-0.119-0.001v0.142h0.148c0.063,0,0.096-0.014,0.096-0.084
			C96.512,57.535,96.441,57.535,96.387,57.535z"/>
		<path fill="#FFFFFF" d="M54.957,8.625v39.137c0.944,0.057,1.862,0.257,2.739,0.451c1.867,0.412,3.48,0.77,4.955-0.266
			c1.52-1.066,2.229-2.344,2.854-3.47c1.139-2.051,2.121-3.823,6.805-3.125c2.801,0.415,5.191-0.694,6.656-3.005l-1.426-0.856
			c-0.316-0.191-0.344-0.407-0.332-0.519c0.012-0.112,0.084-0.318,0.436-0.437l3.295-1.118c0.092-0.031,0.184-0.046,0.273-0.046
			c0.393,0,0.676,0.306,0.676,0.728v2.934c0,0.439-0.268,0.637-0.533,0.637c-0.125,0-0.254-0.039-0.385-0.118l-1.053-0.633
			c-1.699,2.681-4.541,4.015-7.771,3.535c-3.922-0.583-4.615,0.669-5.666,2.563c-0.648,1.17-1.459,2.627-3.188,3.841
			c-1.879,1.318-3.891,0.874-5.838,0.442c-0.844-0.188-1.672-0.369-2.497-0.426V70.24c19.077-7.986,45.403-1.318,45.403-1.318V9.313
			C79.746,0.028,54.957,8.625,54.957,8.625z M63.605,56.755c1.17,1.173,1.17,3.079,0,4.25c-0.568,0.568-1.322,0.881-2.125,0.881
			c-0.09,0-0.18-0.005-0.268-0.013c0.693-0.001,1.387-0.266,1.916-0.795c1.061-1.061,1.061-2.783,0-3.845
			c-1.063-1.062-2.783-1.062-3.848,0c-0.533,0.535-0.797,1.239-0.793,1.94c-0.01-0.098-0.014-0.195-0.014-0.295
			c0-0.801,0.313-1.557,0.881-2.125c0.568-0.566,1.322-0.879,2.125-0.879S63.037,56.188,63.605,56.755z M61.707,57.572l1.064,0.002
			l-1.16,1.381l1.217,1.781h-1.057l-1.168-1.758l-0.002,1.764l-0.855-0.002v-2.801c0-0.395,0.367-0.369,0.367-0.369h0.494
			l-0.004,1.403L61.707,57.572z M63.678,61.627c-1.363,1.365-3.576,1.365-4.943,0c-1.365-1.364-1.365-3.578,0-4.943
			c0.752-0.751,1.76-1.086,2.742-1.01h0.002l0.023,0.001c-0.008-0.001-0.018-0.001-0.025-0.001c-0.855,0.001-1.66,0.334-2.266,0.939
			s-0.939,1.411-0.939,2.266c0,0.857,0.334,1.663,0.939,2.27c0.605,0.604,1.414,0.938,2.268,0.938c0.857,0,1.662-0.334,2.27-0.938
			c0.641-0.644,0.955-1.494,0.936-2.339C64.785,59.816,64.449,60.856,63.678,61.627z M69.727,61.471l-1.537-2.367v2.371l-1.16-0.002
			v-3.795c0-0.5,0.49-0.492,0.49-0.492h0.67v1.911l1.504-1.908l1.451,0.003l-1.58,1.881l1.613,2.4L69.727,61.471z M74.344,58.31
			c-0.582-0.001-1.414-0.081-1.416,1.191l-0.002,1.972H71.76v-3.797c0-0.5,0.49-0.492,0.49-0.492h0.682v0.755
			c0.354-0.76,0.881-0.837,1.414-0.835L74.344,58.31z M76.092,61.474h-1.164v-4.288h1.164V61.474z M76.092,56.648H74.93V56.07
			c0-0.5,0.49-0.494,0.49-0.494l0.672,0.002V56.648z M78.656,61.582c-2.123-0.004-1.973-1.483-1.973-1.507h1.162
			c0,0,0.006,0.629,0.877,0.632c0.705,0,0.697-0.357,0.697-0.357c0.002-0.839-2.605-0.183-2.604-1.844
			c0-0.115,0.004-1.404,1.859-1.401c1.852,0.004,1.787,1.408,1.787,1.408l-1.139-0.003c0,0-0.002-0.566-0.695-0.566
			c-0.693-0.002-0.662,0.355-0.662,0.355c-0.004,0.66,2.607,0.268,2.602,1.836C80.566,61.701,78.656,61.582,78.656,61.582z
			 M64.268,20.38c0.109-0.028,11.152-2.831,26.043,0c0.201,0.039,0.457,0.208,0.385,0.639c-0.033,0.203-0.232,0.333-0.434,0.296
			c-14.729-2.799-25.604-0.034-25.711-0.006c-0.031,0.008-0.063,0.012-0.094,0.012c-0.166,0-0.316-0.111-0.359-0.277
			C64.047,20.846,64.068,20.433,64.268,20.38z M64.549,26.633c-0.031,0.008-0.063,0.011-0.092,0.011
			c-0.168,0-0.316-0.111-0.359-0.279c-0.051-0.199,0.014-0.643,0.213-0.693c0.105-0.027,10.803-2.681,20.916-0.792
			c0.203,0.038,0.307,0.476,0.27,0.678s-0.23,0.332-0.434,0.297C75.107,23.994,64.652,26.607,64.549,26.633z M87.309,61.473h-1.178
			v-2.67c-0.021-0.275-0.135-0.709-0.654-0.71c-0.773,0-0.713,0.854-0.713,0.854v2.526h-1.195v-2.678
			c-0.023-0.275-0.133-0.705-0.643-0.705c-0.617-0.002-0.703,0.543-0.715,0.767l-0.004,0.093v2.523h-1.166v-3.773
			c0-0.521,0.525-0.524,0.525-0.524l0.648,0.001l-0.002,0.611c0,0,0.313-0.707,1.271-0.706c0.959,0.003,1.133,0.759,1.133,0.759
			s0.326-0.756,1.42-0.754c1.082,0.002,1.271,0.906,1.271,1.594V61.473z M92.078,58.027v3.52h-1.166l0.002-0.557
			c-0.33,0.438-0.795,0.711-1.313,0.711c-1.004,0.003-1.828-0.877-1.824-2.299c0.004-1.449,0.811-2.307,1.814-2.309
			c0.559,0.002,1.014,0.255,1.328,0.666v-0.076c0-0.5,0.49-0.494,0.49-0.494l0.668,0.002v0.004l0.004-0.004L92.078,58.027z
			 M95.248,58.31c-0.58-0.001-1.414-0.081-1.416,1.191l-0.004,1.972h-1.162v-3.797c0-0.5,0.49-0.492,0.49-0.492h0.68v0.755
			c0.354-0.76,0.881-0.837,1.414-0.835L95.248,58.31z M96.355,58.257c-0.299-0.001-0.535-0.239-0.533-0.534
			c0-0.301,0.236-0.537,0.535-0.537c0.297,0,0.535,0.239,0.535,0.537C96.891,58.019,96.654,58.257,96.355,58.257z"/>
		<path fill="#FFFFFF" d="M96.357,57.312c-0.234,0-0.408,0.17-0.408,0.411c-0.002,0.236,0.174,0.406,0.406,0.407
			c0.229,0,0.408-0.169,0.408-0.407C96.764,57.482,96.586,57.312,96.357,57.312z M96.611,57.994l-0.135-0.001l-0.123-0.234h-0.086
			v0.234h-0.125v-0.558l0.271,0.002c0.127,0,0.215,0.023,0.215,0.171c0,0.103-0.053,0.144-0.15,0.15L96.611,57.994z"/>
</svg>
